<svg width="24" height="24" viewBox="0 0 24 24" fill="none" xmlns="http://www.w3.org/2000/svg">
<rect width="24" height="24" rx="12" fill="url(#paint0_linear_2660_47147)"/>
<path d="M6.59998 9.73871V14.3253C6.59998 15.7326 7.7408 16.8734 9.14807 16.8734H15.2635C16.3084 16.8734 17.2064 16.2445 17.5996 15.3445H15.0087C13.7421 15.3445 12.7154 14.3178 12.7154 13.0512V11.0128C12.7154 9.74621 13.7421 8.71948 15.0087 8.71948H17.5996C17.2064 7.81954 16.3084 7.19062 15.2635 7.19062H9.14807C7.7408 7.19062 6.59998 8.33144 6.59998 9.73871Z" fill="white"/>
<path fill-rule="evenodd" clip-rule="evenodd" d="M13.7346 11.0128V13.0512C13.7346 13.7549 14.305 14.3253 15.0087 14.3253H17.5568C18.2604 14.3253 18.8308 13.7549 18.8308 13.0512V11.0128C18.8308 10.3091 18.2604 9.73871 17.5568 9.73871H15.0087C14.305 9.73871 13.7346 10.3091 13.7346 11.0128ZM16.2827 12.032C16.2827 12.4542 15.9405 12.7964 15.5183 12.7964C15.0961 12.7964 14.7539 12.4542 14.7539 12.032C14.7539 11.6098 15.0961 11.2676 15.5183 11.2676C15.9405 11.2676 16.2827 11.6098 16.2827 12.032Z" fill="white"/>
<defs>
<linearGradient id="paint0_linear_2660_47147" x1="12" y1="0" x2="12" y2="24" gradientUnits="userSpaceOnUse">
<stop stop-color="#60BFEF"/>
<stop offset="1" stop-color="#0094FE"/>
</linearGradient>
</defs>
</svg>
